<?xml version="1.0" encoding="utf-8"?>
<!-- Generator: Adobe Illustrator 17.1.0, SVG Export Plug-In . SVG Version: 6.00 Build 0)  -->
<!DOCTYPE svg PUBLIC "-//W3C//DTD SVG 1.1//EN" "http://www.w3.org/Graphics/SVG/1.1/DTD/svg11.dtd">
<svg version="1.1" id="Layer_1" xmlns="http://www.w3.org/2000/svg" xmlns:xlink="http://www.w3.org/1999/xlink" x="0px" y="0px"
	 viewBox="0 0 180 180" enable-background="new 0 0 180 180" xml:space="preserve">
<path fill="#A6CE39" d="M158.936,141.191l9.603-16.49l-13.882-16.337c1.768-6.209,2.598-12.555,2.547-18.85l17.738-12.063
	l-4.868-18.449l-21.38-1.738c-3.061-5.5-6.914-10.611-11.516-15.139l4.013-21.062l-16.488-9.603l-16.34,13.882
	c-6.208-1.768-12.554-2.598-18.848-2.546L77.451,5.058L59.002,9.926l-1.738,21.38c-5.5,3.061-10.61,6.914-15.137,11.514
	l-21.063-4.012L11.46,55.298l13.884,16.339c-1.768,6.208-2.598,12.554-2.546,18.848l-17.74,12.063l4.868,18.449l21.379,1.738
	c3.061,5.501,6.914,10.611,11.516,15.14l-4.011,21.062l16.488,9.604l16.337-13.882c6.21,1.768,12.557,2.598,18.851,2.547
	l12.063,17.738l18.449-4.868l1.738-21.378c5.5-3.062,10.612-6.915,15.14-11.516L158.936,141.191z M63.158,136.084
	C37.706,121.261,29.09,88.609,43.915,63.156c14.824-25.452,47.475-34.067,72.926-19.244c25.453,14.825,34.07,47.475,19.246,72.928
	C121.262,142.293,88.611,150.908,63.158,136.084z"/>
</svg>
